# xmcd
#
# Track frame offsets:
#	150
#	10548
#	24537
#	38730
#	55481
#
# Disc length: 988 seconds
#
# Revision: 0
# Processed by: cddbd v1.5.2PL0 Copyright (c) Steve Scherf et al.
# Submitted via: dBpowerAMP V4.0
#
DISCID=3203da05
DTITLE=Tom Mansi and the Icebreakers - Holly e.p.
DYEAR=2007
DGENRE=Country
TTITLE0=Holly
TTITLE1=Heart Break Hooligan
TTITLE2=Who Dunnit
TTITLE3=Last Hero
TTITLE4=When you're dead you're done
EXTD=a 5 track ep, album to follow later
EXTT0=
EXTT1=
EXTT2=
EXTT3=
EXTT4=
PLAYORDER=
